<svg width="308" height="73" viewBox="0 0 308 73" fill="none" xmlns="http://www.w3.org/2000/svg">
<path d="M16.944 72C11.376 72 7.184 70.72 4.368 68.16C1.552 65.6 0.144 61.28 0.144 55.2V0.959999H14.352V52.896C14.352 55.264 14.928 56.896 16.08 57.792C17.296 58.688 18.832 59.136 20.688 59.136H43.152V72H16.944ZM68.799 72.48C67.263 72.48 65.503 72.32 63.519 72C61.535 71.744 59.615 71.104 57.759 70.08C55.967 69.056 54.463 67.52 53.247 65.472C52.095 63.36 51.519 60.48 51.519 56.832V17.184C51.519 12.96 52.351 9.664 54.015 7.296C55.679 4.928 57.759 3.296 60.255 2.4C62.751 1.44 65.247 0.959999 67.743 0.959999C74.911 0.959999 80.895 1.088 85.695 1.34399C90.495 1.59999 94.751 1.88799 98.463 2.20799V14.112H71.967C69.983 14.112 68.447 14.592 67.359 15.552C66.271 16.512 65.727 17.984 65.727 19.968V30.24L93.855 31.008V42.24L65.727 43.008V52.8C65.727 55.296 66.303 56.992 67.455 57.888C68.671 58.72 70.079 59.136 71.679 59.136H98.463V71.04C94.175 71.488 89.343 71.84 83.967 72.096C78.591 72.352 73.535 72.48 68.799 72.48ZM128.96 72.48C123.008 72.48 118.432 71.008 115.232 68.064C112.096 65.056 109.92 60.864 108.704 55.488C107.552 50.048 106.976 43.712 106.976 36.48C106.976 30.784 107.328 25.696 108.032 21.216C108.8 16.736 110.112 12.96 111.968 9.888C113.888 6.752 116.544 4.384 119.936 2.784C123.392 1.12 127.808 0.287996 133.184 0.287996C138.112 0.287996 142.432 0.575996 146.144 1.152C149.856 1.728 153.536 2.496 157.184 3.456V14.4C155.136 14.144 152.16 13.856 148.256 13.536C144.352 13.216 140.192 13.056 135.776 13.056C131.744 13.056 128.672 13.792 126.56 15.264C124.448 16.736 123.008 19.168 122.24 22.56C121.536 25.952 121.184 30.624 121.184 36.576C121.184 42.72 121.568 47.456 122.336 50.784C123.104 54.048 124.384 56.32 126.176 57.6C127.968 58.816 130.4 59.424 133.472 59.424C136.16 59.424 138.688 59.2 141.056 58.752C143.424 58.304 145.344 57.856 146.816 57.408V43.584H134.048V32.352C136.032 32.096 138.56 31.872 141.632 31.68C144.768 31.488 147.712 31.392 150.464 31.392C152.512 31.392 154.336 31.424 155.936 31.488C157.6 31.552 159.104 31.616 160.448 31.68V72H149.792L147.872 67.2C146.016 68.288 143.392 69.44 140 70.656C136.608 71.872 132.928 72.48 128.96 72.48ZM172.738 72V0.959999H186.946V72H172.738ZM199.269 72V17.184C199.269 12.96 200.101 9.664 201.765 7.296C203.429 4.928 205.509 3.296 208.005 2.4C210.501 1.44 212.997 0.959999 215.493 0.959999C217.797 0.959999 220.645 0.991999 224.037 1.056C227.493 1.12 231.141 1.248 234.981 1.44C238.885 1.568 242.629 1.824 246.213 2.20799V14.112H219.429C217.445 14.112 215.941 14.656 214.917 15.744C213.957 16.768 213.477 18.112 213.477 19.776V31.968L241.605 32.736V43.968L213.477 44.736V72H199.269ZM272.134 72V50.496L250.726 0.959999H265.51L279.526 36L293.446 0.959999H307.654L286.342 50.496V72H272.134Z" fill="black"/>
</svg>
